<?xml version="1.0" encoding="utf-8"?>
<!-- Generator: Adobe Illustrator 22.0.0, SVG Export Plug-In . SVG Version: 6.00 Build 0)  -->
<svg version="1.1" id="Layer_1" xmlns="http://www.w3.org/2000/svg" xmlns:xlink="http://www.w3.org/1999/xlink" x="0px" y="0px"
	 viewBox="0 0 220 105.8" style="enable-background:new 0 0 220 105.8;" xml:space="preserve">
<style type="text/css">
	.st0{opacity:0.75;}
	.st1{fill:#028952;}
	.st2{fill:#FFFFFF;}
</style>
<title>codingsaves</title>
<g>
	<g class="st0">
		<polygon points="170,3 220,53 170,103 160,93 200,53 160,13 		"/>
	</g>
	<g>
		<polygon class="st1" points="170,0 220,50 170,100 160,90 200,50 160,10 		"/>
	</g>
</g>
<g>
	<g class="st0">
		<polygon points="50,3 0,53 50,103 60,93 20,53 60,13 		"/>
	</g>
	<g>
		<polygon class="st1" points="50,0 0,50 50,100 60,90 20,50 60,10 		"/>
	</g>
</g>
<g>
	<g class="st0">
		<path d="M78.2,33.4v1.8c0,0.9-0.2,1.7-0.5,2.5c-0.7,1.6-1.9,2.8-3.4,3.6c-0.8,0.4-1.7,0.5-2.5,0.5c-0.8,0-1.6-0.1-2.4-0.3
			c-0.8-0.2-1.5-0.6-2.2-1.1c-0.7-0.6-1.2-1.3-1.6-2.1c-0.5-1-0.7-2.1-0.6-3.2V19.3c0-0.9,0.2-1.8,0.5-2.6c0.3-0.8,0.8-1.5,1.4-2.1
			c0.6-0.6,1.4-1.1,2.2-1.4c0.9-0.3,1.8-0.5,2.7-0.5c1.8-0.1,3.5,0.6,4.7,1.9c0.6,0.6,1.1,1.4,1.4,2.2c0.3,0.9,0.5,1.8,0.5,2.7v1.6
			h-4.1v-1.4c0-0.8-0.2-1.5-0.7-2.1c-0.4-0.6-1.1-0.9-1.8-0.9c-0.8-0.1-1.6,0.3-2,0.9c-0.4,0.7-0.5,1.6-0.5,2.4v14.6
			c0,0.7,0.2,1.5,0.5,2.1c0.5,0.6,1.2,0.9,1.9,0.8c0.3,0,0.6-0.1,0.9-0.1c0.3-0.1,0.6-0.3,0.8-0.5c0.3-0.2,0.5-0.5,0.6-0.9
			c0.2-0.4,0.3-0.9,0.2-1.4v-1.4L78.2,33.4z"/>
	</g>
	<g>
		<path class="st2" d="M78.2,30.4v1.8c0,0.9-0.2,1.7-0.5,2.5c-0.7,1.6-1.9,2.8-3.4,3.6c-0.8,0.4-1.7,0.5-2.5,0.5
			c-0.8,0-1.6-0.1-2.4-0.3c-0.8-0.2-1.5-0.6-2.2-1.1c-0.7-0.6-1.2-1.3-1.6-2.1c-0.5-1-0.7-2.1-0.6-3.2V16.3c0-0.9,0.2-1.8,0.5-2.6
			c0.3-0.8,0.8-1.5,1.4-2.1c0.6-0.6,1.4-1.1,2.2-1.4c0.9-0.3,1.8-0.5,2.7-0.5c1.8-0.1,3.5,0.6,4.7,1.9c0.6,0.6,1.1,1.4,1.4,2.2
			c0.3,0.9,0.5,1.8,0.5,2.7v1.6h-4.1v-1.4c0-0.8-0.2-1.5-0.7-2.1c-0.4-0.6-1.1-0.9-1.8-0.9c-0.8-0.1-1.6,0.3-2,0.9
			c-0.4,0.7-0.5,1.6-0.5,2.4v14.6c0,0.7,0.2,1.5,0.5,2.1c0.5,0.6,1.2,0.9,1.9,0.8c0.3,0,0.6-0.1,0.9-0.1c0.3-0.1,0.6-0.3,0.8-0.5
			c0.3-0.2,0.5-0.5,0.6-0.9c0.2-0.4,0.3-0.9,0.2-1.4v-1.4L78.2,30.4z"/>
	</g>
</g>
<g>
	<g class="st0">
		<path d="M81.3,19.7c0-1,0.2-2.1,0.6-3c0.4-0.8,0.9-1.6,1.6-2.2c0.6-0.6,1.4-1,2.2-1.3c2.4-0.9,5.2-0.4,7.1,1.3
			c0.7,0.6,1.2,1.4,1.6,2.2c0.4,0.9,0.6,2,0.6,3v15c0,1.1-0.2,2.1-0.6,3.1c-0.4,0.8-0.9,1.6-1.6,2.2c-0.6,0.6-1.4,1-2.2,1.3
			c-1.6,0.6-3.3,0.6-4.9,0c-0.8-0.3-1.6-0.7-2.2-1.3c-0.7-0.6-1.2-1.3-1.6-2.1c-0.4-1-0.6-2-0.6-3.1V19.7z M85.4,34.7
			c-0.1,0.8,0.2,1.6,0.8,2.2c1.1,0.9,2.8,0.9,3.9,0c0.6-0.6,0.9-1.4,0.8-2.2v-15c0.1-0.8-0.2-1.6-0.8-2.2c-1.1-0.9-2.8-0.9-3.9,0
			c-0.6,0.6-0.9,1.4-0.8,2.2V34.7z"/>
	</g>
	<g>
		<path class="st2" d="M81.3,16.7c0-1,0.2-2.1,0.6-3c0.4-0.8,0.9-1.6,1.6-2.2c0.6-0.6,1.4-1,2.2-1.3c2.4-0.9,5.2-0.4,7.1,1.3
			c0.7,0.6,1.2,1.4,1.6,2.2c0.4,0.9,0.6,2,0.6,3v15c0,1.1-0.2,2.1-0.6,3.1c-0.4,0.8-0.9,1.6-1.6,2.2c-0.6,0.6-1.4,1-2.2,1.3
			c-1.6,0.6-3.3,0.6-4.9,0c-0.8-0.3-1.6-0.7-2.2-1.3c-0.7-0.6-1.2-1.3-1.6-2.1c-0.4-1-0.6-2-0.6-3.1V16.7z M85.4,31.7
			c-0.1,0.8,0.2,1.6,0.8,2.2c1.1,0.9,2.8,0.9,3.9,0c0.6-0.6,0.9-1.4,0.8-2.2v-15c0.1-0.8-0.2-1.6-0.8-2.2c-1.1-0.9-2.8-0.9-3.9,0
			c-0.6,0.6-0.9,1.4-0.8,2.2V31.7z"/>
	</g>
</g>
<g>
	<g class="st0">
		<path d="M98.6,41.5V13h6c2-0.2,4,0.5,5.4,1.9c1.3,1.5,1.9,3.5,1.8,5.4v13.3c0,2.7-0.7,4.6-1.9,5.9c-1.5,1.4-3.5,2-5.6,1.9
			L98.6,41.5z M102.7,16.8v20.8h1.9c0.9,0.1,1.8-0.2,2.4-0.9c0.5-0.8,0.8-1.7,0.7-2.7V20.4c0.1-0.9-0.2-1.8-0.7-2.6
			c-0.6-0.7-1.6-1-2.5-0.9H102.7z"/>
	</g>
	<g>
		<path class="st2" d="M98.6,38.5V10h6c2-0.2,4,0.5,5.4,1.9c1.3,1.5,1.9,3.5,1.8,5.4v13.3c0,2.7-0.7,4.6-1.9,5.9
			c-1.5,1.4-3.5,2-5.6,1.9L98.6,38.5z M102.7,13.8v20.8h1.9c0.9,0.1,1.8-0.2,2.4-0.9c0.5-0.8,0.8-1.7,0.7-2.7V17.4
			c0.1-0.9-0.2-1.8-0.7-2.6c-0.6-0.7-1.6-1-2.5-0.9H102.7z"/>
	</g>
</g>
<g>
	<g class="st0">
		<rect x="115.7" y="13" width="4.1" height="28.5"/>
	</g>
	<g>
		<rect x="115.7" y="10" class="st2" width="4.1" height="28.5"/>
	</g>
</g>
<g>
	<g class="st0">
		<polygon points="123.6,41.5 123.6,13 127.5,13 133.7,30.2 133.8,30.2 133.8,13 137.9,13 137.9,41.5 134,41.5 127.8,24.4 
			127.7,24.4 127.7,41.5 		"/>
	</g>
	<g>
		<polygon class="st2" points="123.6,38.5 123.6,10 127.5,10 133.7,27.2 133.8,27.2 133.8,10 137.9,10 137.9,38.5 134,38.5 
			127.8,21.4 127.7,21.4 127.7,38.5 		"/>
	</g>
</g>
<g>
	<g class="st0">
		<path d="M141.3,19.7c0-1,0.2-2.1,0.6-3c0.4-0.8,0.9-1.6,1.6-2.2c0.6-0.6,1.4-1,2.2-1.3c2.4-0.9,5.2-0.4,7.1,1.3
			c0.7,0.6,1.2,1.4,1.6,2.2c0.4,0.9,0.6,2,0.6,3v1.4h-4.1v-1.4c0.1-0.8-0.2-1.6-0.8-2.2c-1.1-0.9-2.8-0.9-3.9,0
			c-0.6,0.6-0.9,1.4-0.8,2.2v15c-0.1,0.8,0.2,1.6,0.8,2.2c1.1,0.9,2.8,0.9,3.9,0c0.6-0.6,0.9-1.4,0.8-2.2v-5.3h-3.2v-3.6h7.3v9
			c0,1.1-0.2,2.1-0.6,3.1c-0.4,0.8-0.9,1.5-1.6,2.1c-0.6,0.6-1.4,1-2.2,1.3c-1.6,0.6-3.3,0.6-4.9,0c-0.8-0.3-1.6-0.7-2.2-1.3
			c-0.7-0.6-1.2-1.3-1.6-2.1c-0.4-1-0.6-2-0.6-3.1L141.3,19.7z"/>
	</g>
	<g>
		<path class="st2" d="M141.3,16.7c0-1,0.2-2.1,0.6-3c0.4-0.8,0.9-1.6,1.6-2.2c0.6-0.6,1.4-1,2.2-1.3c2.4-0.9,5.2-0.4,7.1,1.3
			c0.7,0.6,1.2,1.4,1.6,2.2c0.4,0.9,0.6,2,0.6,3v1.4h-4.1v-1.4c0.1-0.8-0.2-1.6-0.8-2.2c-1.1-0.9-2.8-0.9-3.9,0
			c-0.6,0.6-0.9,1.4-0.8,2.2v15c-0.1,0.8,0.2,1.6,0.8,2.2c1.1,0.9,2.8,0.9,3.9,0c0.6-0.6,0.9-1.4,0.8-2.2v-5.3h-3.2v-3.6h7.3v9
			c0,1.1-0.2,2.1-0.6,3.1c-0.4,0.8-0.9,1.5-1.6,2.1c-0.6,0.6-1.4,1-2.2,1.3c-1.6,0.6-3.3,0.6-4.9,0c-0.8-0.3-1.6-0.7-2.2-1.3
			c-0.7-0.6-1.2-1.3-1.6-2.1c-0.4-1-0.6-2-0.6-3.1L141.3,16.7z"/>
	</g>
</g>
<g>
	<g class="st0">
		<rect x="60.6" y="93.7" width="20" height="2"/>
	</g>
	<g>
		<rect x="60.6" y="90.7" class="st2" width="20" height="2"/>
	</g>
</g>
<g>
	<g class="st0">
		<path d="M95.7,70.4h-4.1v-0.9c0-0.9-0.2-1.7-0.7-2.4c-0.5-0.7-1.4-1.1-2.2-1c-0.9-0.1-1.7,0.4-2.2,1.1c-0.2,0.4-0.4,0.8-0.4,1.2
			c-0.1,0.4-0.1,0.9-0.1,1.4c0,0.5,0,0.9,0.1,1.4c0,0.3,0.1,0.7,0.3,1c0.2,0.3,0.4,0.6,0.7,0.8c0.4,0.3,0.8,0.5,1.3,0.6l3.1,1.2
			c0.8,0.3,1.6,0.7,2.2,1.2c0.5,0.4,1,1,1.3,1.6c0.3,0.7,0.5,1.4,0.6,2.2c0.1,0.9,0.2,1.9,0.2,2.8c0,1.1-0.1,2.2-0.4,3.3
			c-0.2,0.9-0.6,1.8-1.2,2.6c-0.6,0.8-1.4,1.4-2.2,1.8c-1,0.5-2.2,0.7-3.3,0.6c-0.9,0-1.9-0.2-2.8-0.5c-0.8-0.3-1.6-0.8-2.2-1.4
			c-0.6-0.6-1.1-1.3-1.5-2.1c-0.4-0.8-0.5-1.7-0.5-2.7v-1.6h4.1v1.3c0,0.7,0.2,1.4,0.7,2c0.5,0.6,1.4,1,2.2,0.9
			c0.6,0,1.1-0.1,1.6-0.3c0.4-0.2,0.7-0.5,0.9-0.9c0.2-0.4,0.4-0.9,0.4-1.3c0-0.5,0.1-1.1,0.1-1.7c0-0.6,0-1.2-0.1-1.8
			c0-0.4-0.1-0.8-0.3-1.2c-0.2-0.3-0.4-0.5-0.7-0.7c-0.4-0.2-0.8-0.4-1.2-0.6l-2.9-1.2c-1.5-0.5-2.7-1.5-3.5-2.9
			c-0.6-1.4-1-2.9-0.9-4.5c0-1,0.1-2,0.4-3c0.3-0.9,0.7-1.8,1.3-2.5c0.6-0.7,1.3-1.3,2.1-1.7c1-0.4,2-0.6,3.1-0.6
			c1,0,1.9,0.2,2.8,0.6c0.8,0.3,1.5,0.8,2.2,1.5c1.2,1.2,1.8,2.7,1.8,4.4V70.4z"/>
	</g>
	<g>
		<path class="st2" d="M95.7,67.4h-4.1v-0.9c0-0.9-0.2-1.7-0.7-2.4c-0.5-0.7-1.4-1.1-2.2-1c-0.9-0.1-1.7,0.4-2.2,1.1
			c-0.2,0.4-0.4,0.8-0.4,1.2c-0.1,0.4-0.1,0.9-0.1,1.4c0,0.5,0,0.9,0.1,1.4c0,0.3,0.1,0.7,0.3,1c0.2,0.3,0.4,0.6,0.7,0.8
			c0.4,0.3,0.8,0.5,1.3,0.6l3.1,1.2c0.8,0.3,1.6,0.7,2.2,1.2c0.5,0.4,1,1,1.3,1.6c0.3,0.7,0.5,1.4,0.6,2.2c0.1,0.9,0.2,1.9,0.2,2.8
			c0,1.1-0.1,2.2-0.4,3.3c-0.2,0.9-0.6,1.8-1.2,2.6c-0.6,0.8-1.4,1.4-2.2,1.8c-1,0.5-2.2,0.7-3.3,0.6c-0.9,0-1.9-0.2-2.8-0.5
			c-0.8-0.3-1.6-0.8-2.2-1.4c-0.6-0.6-1.1-1.3-1.5-2.1c-0.4-0.8-0.5-1.7-0.5-2.7v-1.6h4.1v1.3c0,0.7,0.2,1.4,0.7,2
			c0.5,0.6,1.4,1,2.2,0.9c0.6,0,1.1-0.1,1.6-0.3c0.4-0.2,0.7-0.5,0.9-0.9c0.2-0.4,0.4-0.9,0.4-1.3c0-0.5,0.1-1.1,0.1-1.7
			c0-0.6,0-1.2-0.1-1.8c0-0.4-0.1-0.8-0.3-1.2c-0.2-0.3-0.4-0.5-0.7-0.7c-0.4-0.2-0.8-0.4-1.2-0.6l-2.9-1.2
			c-1.5-0.5-2.7-1.5-3.5-2.9c-0.6-1.4-1-2.9-0.9-4.5c0-1,0.1-2,0.4-3c0.3-0.9,0.7-1.8,1.3-2.5c0.6-0.7,1.3-1.3,2.1-1.7
			c1-0.4,2-0.6,3.1-0.6c1,0,1.9,0.2,2.8,0.6c0.8,0.3,1.5,0.8,2.2,1.5c1.2,1.2,1.8,2.7,1.8,4.4V67.4z"/>
	</g>
</g>
<g>
	<g class="st0">
		<path d="M96.9,90.7l6.4-28.5h3.4l6.4,28.5H109l-1.2-6.1h-5.6l-1.2,6.1H96.9z M107,80.7l-2-10.3h-0.1l-2,10.3L107,80.7z"/>
	</g>
	<g>
		<path class="st2" d="M96.9,87.7l6.4-28.5h3.4l6.4,28.5H109l-1.2-6.1h-5.6l-1.2,6.1H96.9z M107,77.7l-2-10.3h-0.1l-2,10.3L107,77.7
			z"/>
	</g>
</g>
<g>
	<g class="st0">
		<polygon points="127.4,62.2 121.6,90.7 118,90.7 112.2,62.2 116.5,62.2 119.8,82.1 119.8,82.1 123.1,62.2 		"/>
	</g>
	<g>
		<polygon class="st2" points="127.4,59.2 121.6,87.7 118,87.7 112.2,59.2 116.5,59.2 119.8,79.1 119.8,79.1 123.1,59.2 		"/>
	</g>
</g>
<g>
	<g class="st0">
		<polygon points="129.9,90.7 129.9,62.2 142,62.2 142,66 133.9,66 133.9,74.4 140.9,74.4 140.9,78.2 133.9,78.2 133.9,86.6 
			142,86.6 142,90.7 		"/>
	</g>
	<g>
		<polygon class="st2" points="129.9,87.7 129.9,59.2 142,59.2 142,63 133.9,63 133.9,71.4 140.9,71.4 140.9,75.2 133.9,75.2 
			133.9,83.6 142,83.6 142,87.7 		"/>
	</g>
</g>
<g>
	<g class="st0">
		<path d="M158.2,69.9h-4.2V69c0-0.9-0.2-1.7-0.7-2.5c-0.5-0.7-1.4-1.1-2.3-1c-0.9,0-1.8,0.4-2.2,1.1c-0.2,0.4-0.4,0.8-0.4,1.2
			c-0.1,0.5-0.1,0.9-0.1,1.4c0,0.5,0,1,0.1,1.4c0,0.3,0.1,0.7,0.3,1c0.2,0.3,0.4,0.6,0.7,0.8c0.4,0.3,0.8,0.5,1.3,0.7l3.2,1.3
			c0.8,0.3,1.6,0.7,2.2,1.2c0.6,0.5,1,1,1.4,1.7c0.3,0.7,0.5,1.5,0.6,2.2c0.1,0.9,0.2,1.9,0.2,2.8c0,1.2-0.1,2.3-0.4,3.4
			c-0.2,1-0.6,1.9-1.2,2.7c-0.6,0.8-1.4,1.4-2.3,1.8c-1.1,0.5-2.2,0.7-3.4,0.7c-1,0-1.9-0.2-2.8-0.5c-0.8-0.3-1.6-0.8-2.2-1.5
			c-0.6-0.6-1.1-1.4-1.5-2.2c-0.4-0.9-0.6-1.8-0.6-2.7v-1.6h4.2v1.3c0,0.7,0.2,1.5,0.7,2.1c0.6,0.7,1.4,1,2.3,0.9
			c0.6,0,1.1-0.1,1.7-0.3c0.4-0.2,0.7-0.5,0.9-0.9c0.2-0.4,0.4-0.9,0.4-1.4c0-0.5,0.1-1.1,0.1-1.8c0-0.6,0-1.3-0.1-1.9
			c0-0.4-0.1-0.8-0.3-1.2c-0.2-0.3-0.5-0.6-0.8-0.7c-0.4-0.2-0.8-0.4-1.2-0.6l-3-1.2c-1.5-0.5-2.8-1.6-3.6-2.9c-0.7-1.4-1-3-0.9-4.6
			c0-1.1,0.1-2.1,0.4-3.1c0.3-0.9,0.7-1.8,1.4-2.5c0.6-0.7,1.3-1.3,2.2-1.7c1-0.5,2.1-0.7,3.2-0.6c1,0,2,0.2,2.9,0.6
			c0.8,0.4,1.6,0.9,2.2,1.5c1.2,1.2,1.9,2.8,1.9,4.5L158.2,69.9z"/>
	</g>
	<g>
		<path class="st2" d="M158.2,66.9h-4.2V66c0-0.9-0.2-1.7-0.7-2.5c-0.5-0.7-1.4-1.1-2.3-1c-0.9,0-1.8,0.4-2.2,1.2
			c-0.2,0.4-0.4,0.8-0.4,1.2c-0.1,0.5-0.1,0.9-0.1,1.4c0,0.5,0,1,0.1,1.4c0,0.3,0.1,0.7,0.3,1c0.2,0.3,0.4,0.6,0.7,0.8
			c0.4,0.3,0.8,0.5,1.3,0.7l3.2,1.3c0.8,0.3,1.6,0.7,2.2,1.2c0.6,0.5,1,1,1.4,1.7c0.3,0.7,0.5,1.5,0.6,2.2c0.1,0.9,0.2,1.9,0.2,2.8
			c0,1.2-0.1,2.3-0.4,3.4c-0.2,1-0.6,1.9-1.2,2.7c-0.6,0.8-1.4,1.4-2.3,1.8c-1.1,0.5-2.2,0.7-3.4,0.7c-1,0-1.9-0.2-2.8-0.5
			c-0.8-0.3-1.6-0.8-2.2-1.5c-0.6-0.6-1.1-1.4-1.5-2.2c-0.4-0.9-0.6-1.8-0.6-2.7v-1.6h4.2v1.3c0,0.7,0.2,1.5,0.7,2.1
			c0.6,0.7,1.4,1,2.3,0.9c0.6,0,1.1-0.1,1.7-0.3c0.4-0.2,0.7-0.5,0.9-0.9c0.2-0.4,0.4-0.9,0.4-1.4c0-0.5,0.1-1.1,0.1-1.8
			c0-0.6,0-1.3-0.1-1.9c0-0.4-0.1-0.8-0.3-1.2c-0.2-0.3-0.5-0.6-0.8-0.7c-0.4-0.2-0.8-0.4-1.2-0.6l-3-1.2c-1.5-0.5-2.8-1.6-3.6-2.9
			c-0.7-1.4-1-3-0.9-4.6c0-1.1,0.1-2.1,0.4-3.1c0.3-0.9,0.7-1.8,1.4-2.5c0.6-0.7,1.3-1.3,2.2-1.7c1-0.5,2.1-0.7,3.2-0.6
			c1,0,2,0.2,2.9,0.6c0.8,0.4,1.6,0.9,2.2,1.5c1.2,1.2,1.9,2.8,1.9,4.5L158.2,66.9z"/>
	</g>
</g>
</svg>
