<svg id="Layer_1" data-name="Layer 1" xmlns="http://www.w3.org/2000/svg" viewBox="0 0 220 100"><defs><style>.cls-1{fill:#188755;}</style></defs><title>codingsaves</title><polygon class="cls-1" points="170 0 220 50 170 100 160 90 200 49.99 160 10 170 0"/><polygon class="cls-1" points="50 0 0 50 50 100 60 90 20 49.99 60 10 50 0"/><path d="M78.22,30.36v1.76a6.41,6.41,0,0,1-.5,2.5,6.8,6.8,0,0,1-3.44,3.56,6,6,0,0,1-2.54.54,9.3,9.3,0,0,1-2.36-.32,5.58,5.58,0,0,1-2.16-1.12,6.12,6.12,0,0,1-1.58-2.06A7.33,7.33,0,0,1,65,32V16.32a7,7,0,0,1,.48-2.6,6.1,6.1,0,0,1,1.36-2.08A6.29,6.29,0,0,1,69,10.26a7.09,7.09,0,0,1,2.7-.5,6.2,6.2,0,0,1,4.68,1.88,6.54,6.54,0,0,1,1.38,2.18,7.42,7.42,0,0,1,.5,2.74v1.6H74.14V16.8a3.33,3.33,0,0,0-.68-2.08,2.19,2.19,0,0,0-1.84-.88,2.07,2.07,0,0,0-2,.94,5.09,5.09,0,0,0-.5,2.38V31.72a3.76,3.76,0,0,0,.54,2.08,2.13,2.13,0,0,0,1.94.84,3.08,3.08,0,0,0,.86-.14A2.57,2.57,0,0,0,73.3,34a2.44,2.44,0,0,0,.6-.88,3.55,3.55,0,0,0,.24-1.4v-1.4Z" transform="translate(0 0)"/><path d="M81.3,16.72a7.27,7.27,0,0,1,.6-3,6.41,6.41,0,0,1,1.6-2.2,6.74,6.74,0,0,1,2.18-1.28,7.26,7.26,0,0,1,7.14,1.28,6.73,6.73,0,0,1,1.56,2.2,7.27,7.27,0,0,1,.6,3v15a7.2,7.2,0,0,1-.6,3.08A6.39,6.39,0,0,1,92.82,37a6.81,6.81,0,0,1-2.22,1.32,7.1,7.1,0,0,1-4.92,0A6.35,6.35,0,0,1,83.5,37a6.1,6.1,0,0,1-1.6-2.12,7.2,7.2,0,0,1-.6-3.08Zm4.08,15a2.7,2.7,0,0,0,.82,2.18,3,3,0,0,0,3.88,0,2.7,2.7,0,0,0,.82-2.18v-15a2.7,2.7,0,0,0-.82-2.18,3,3,0,0,0-3.88,0,2.7,2.7,0,0,0-.82,2.18Z" transform="translate(0 0)"/><path d="M98.58,38.48V10h6A7,7,0,0,1,110,11.92a7.61,7.61,0,0,1,1.82,5.44V30.68c0,2.67-.65,4.63-1.94,5.9a7.62,7.62,0,0,1-5.58,1.9Zm4.08-24.64v20.8h1.88a3,3,0,0,0,2.44-.86,4.15,4.15,0,0,0,.72-2.7V17.36a4.33,4.33,0,0,0-.68-2.6,2.91,2.91,0,0,0-2.48-.92Z" transform="translate(0 0)"/><path d="M115.74,38.48V10h4.08V38.48Z" transform="translate(0 0)"/><path d="M123.62,38.48V10h3.92l6.16,17.16h.08V10h4.08V38.48H134l-6.24-17.12h-.08V38.48Z" transform="translate(0 0)"/><path d="M141.3,16.72a7.27,7.27,0,0,1,.6-3,6.41,6.41,0,0,1,1.6-2.2,6.74,6.74,0,0,1,2.18-1.28,7.26,7.26,0,0,1,7.14,1.28,6.73,6.73,0,0,1,1.56,2.2,7.27,7.27,0,0,1,.6,3v1.44H150.9V16.72a2.7,2.7,0,0,0-.82-2.18,3,3,0,0,0-3.88,0,2.7,2.7,0,0,0-.82,2.18v15a2.7,2.7,0,0,0,.82,2.18,3,3,0,0,0,3.88,0,2.7,2.7,0,0,0,.82-2.18V26.4h-3.24V22.8H155v9a7.2,7.2,0,0,1-.6,3.08A6.39,6.39,0,0,1,152.82,37a6.81,6.81,0,0,1-2.22,1.32,7.1,7.1,0,0,1-4.92,0A6.35,6.35,0,0,1,143.5,37a6.1,6.1,0,0,1-1.6-2.12,7.2,7.2,0,0,1-.6-3.08Z" transform="translate(0 0)"/><path d="M60.62,92.68v-2h20v2Z" transform="translate(0 0)"/><path d="M95.74,67.4H91.66v-.92A4.36,4.36,0,0,0,91,64.06a2.44,2.44,0,0,0-2.22-1,2.44,2.44,0,0,0-2.2,1.12,3.28,3.28,0,0,0-.44,1.18A7.7,7.7,0,0,0,86,66.72a13.48,13.48,0,0,0,.06,1.4,2.66,2.66,0,0,0,.3,1,2.19,2.19,0,0,0,.7.76,6.07,6.07,0,0,0,1.26.64l3.12,1.24A7.83,7.83,0,0,1,93.66,73,5.35,5.35,0,0,1,95,74.6a7.82,7.82,0,0,1,.6,2.18,22.8,22.8,0,0,1,.16,2.78,14.68,14.68,0,0,1-.36,3.34,7.07,7.07,0,0,1-1.16,2.62A5.81,5.81,0,0,1,92,87.28a7.74,7.74,0,0,1-3.32.64,7.18,7.18,0,0,1-2.76-.52A6.57,6.57,0,0,1,83.74,86a6.89,6.89,0,0,1-1.46-2.14,6.49,6.49,0,0,1-.54-2.66V79.64h4.08v1.28a3.33,3.33,0,0,0,.66,2,2.57,2.57,0,0,0,2.22.9,3.6,3.6,0,0,0,1.62-.3,2.26,2.26,0,0,0,.9-.86,3.19,3.19,0,0,0,.38-1.34q.06-.78.06-1.74a18.13,18.13,0,0,0-.08-1.84,3.28,3.28,0,0,0-.32-1.16,2.42,2.42,0,0,0-.74-.72,9.27,9.27,0,0,0-1.22-.6l-2.92-1.2a6.45,6.45,0,0,1-3.54-2.86,9.84,9.84,0,0,1-.9-4.46,10.12,10.12,0,0,1,.44-3,6.79,6.79,0,0,1,1.32-2.48,6,6,0,0,1,2.14-1.66,7.17,7.17,0,0,1,3.1-.62,6.83,6.83,0,0,1,2.78.56A7.24,7.24,0,0,1,93.9,61a6.21,6.21,0,0,1,1.84,4.4Z" transform="translate(0 0)"/><path d="M96.94,87.68,103.3,59.2h3.4l6.36,28.48H109l-1.2-6.12h-5.56L101,87.68Zm10.08-10L105,67.4h-.08l-2,10.32Z" transform="translate(0 0)"/><path d="M127.42,59.2l-5.84,28.48H118l-5.8-28.48h4.32l3.24,19.88h.08L123.1,59.2Z" transform="translate(0 0)"/><path d="M129.86,87.68V59.2H142V63h-8.08V71.4h7v3.84h-7V83.6H142v4.08Z" transform="translate(0 0)"/><path d="M158.24,66.89h-4.19V66a4.47,4.47,0,0,0-.67-2.48,2.5,2.5,0,0,0-2.28-1,2.51,2.51,0,0,0-2.25,1.15,3.45,3.45,0,0,0-.45,1.21,7.21,7.21,0,0,0-.13,1.42,14.12,14.12,0,0,0,.06,1.43,3,3,0,0,0,.31,1,2.2,2.2,0,0,0,.72.77,6.35,6.35,0,0,0,1.29.66l3.2,1.27a7.9,7.9,0,0,1,2.25,1.25,5.37,5.37,0,0,1,1.36,1.66,7.82,7.82,0,0,1,.61,2.24,21.84,21.84,0,0,1,.17,2.85,15.32,15.32,0,0,1-.37,3.42,7.44,7.44,0,0,1-1.19,2.69,6,6,0,0,1-2.26,1.8,7.9,7.9,0,0,1-3.4.66,7.35,7.35,0,0,1-2.83-.54,6.56,6.56,0,0,1-2.25-1.47,7.16,7.16,0,0,1-1.5-2.2,6.61,6.61,0,0,1-.55-2.72V79.44h4.18v1.31a3.39,3.39,0,0,0,.67,2.07,2.62,2.62,0,0,0,2.28.92,3.76,3.76,0,0,0,1.66-.3,2.19,2.19,0,0,0,.92-.89,3.19,3.19,0,0,0,.39-1.37c0-.53.06-1.13.06-1.78a16.43,16.43,0,0,0-.08-1.89,3.06,3.06,0,0,0-.33-1.19,2.34,2.34,0,0,0-.76-.74,9.8,9.8,0,0,0-1.25-.61l-3-1.23A6.7,6.7,0,0,1,145,70.81a10.16,10.16,0,0,1-.92-4.57,10.6,10.6,0,0,1,.45-3.12,7.11,7.11,0,0,1,1.35-2.54,6.23,6.23,0,0,1,2.2-1.7,7.25,7.25,0,0,1,3.18-.64,6.88,6.88,0,0,1,2.85.58,7.26,7.26,0,0,1,2.23,1.51,6.33,6.33,0,0,1,1.89,4.51Z" transform="translate(0 0)"/></svg>