<?xml version="1.0" encoding="utf-8"?>
<!-- Generator: Adobe Illustrator 22.0.0, SVG Export Plug-In . SVG Version: 6.00 Build 0)  -->
<svg version="1.1" id="Layer_1" xmlns="http://www.w3.org/2000/svg" xmlns:xlink="http://www.w3.org/1999/xlink" x="0px" y="0px"
	 viewBox="0 0 80 80" style="enable-background:new 0 0 80 80;" xml:space="preserve">
<style type="text/css">
	.st0{fill:#FFFFFF;stroke:#000000;stroke-width:5;stroke-miterlimit:10;}
	.st1{fill:#C32026;}
</style>
<g>
	<circle class="st0" cx="40" cy="40" r="35.5"/>
	<path class="st1" d="M50.5,19c0.3,0.1,0.7,0,1,0c2.9,0.2,5.5,1.8,6.7,4.7c0.9,2.1,1,4.4,1,6.6c0,5.4,0,10.8,0,16.2
		c0,4.7,0,9.4,0,14.1c0,0.1,0,0.2,0,0.3c-0.2,0-0.3,0-0.4,0c-3.1,0-6.2,0.1-9.3,0c-3-0.1-5.2-1.4-6.6-4.1c-0.7-1.3-1-2.7-1.2-4.1
		c-0.3-2.3-0.2-4.7-0.1-7c0.1-2.3,0.7-4.5,2.2-6.4c1-1.2,2.3-2,3.7-2.4c1.5-0.4,3-0.4,4.6-0.3c0.5,0,1,0.2,1.5,0.3
		c0-0.1,0-0.3,0-0.4c0-2.7,0-5.5,0-8.2c0-0.7-0.2-1.4-0.4-2.1c-0.4-1.3-2.1-1.7-3.2-1.5c-1.5,0.3-2.2,1.8-2.3,3.2c0,0.5,0,0.9,0,1.4
		c0,1.3,0.3,1.2-1.3,1.2c-1.3,0-2.6,0-4,0c-1.3,0-0.9,0-0.9-0.9c0-0.7,0.1-1.7,0.1-2.3c0-0.5,0.1-0.9,0.2-1.4
		c0.5-2.6,1.7-4.9,4.2-6.2c1-0.5,2.1-0.8,3.2-0.9c0.3,0,0.7,0,1,0C50.3,19,50.4,19,50.5,19z M53.5,48.9c-0.1-2.3,0-2.5-0.2-3.7
		c-0.3-2.4-2.4-3-4.1-2.3c-1.1,0.4-1.6,1.4-1.6,2.5c-0.1,2.3-0.1,4.6,0,6.9c0,1.4,0.7,2.6,2.3,2.8c1.1,0.2,2.9-0.2,3.4-1.5
		c0.2-0.7,0.1-1.4,0.2-2.1C53.6,50.7,53.5,50.3,53.5,48.9z"/>
	<path d="M21,48.2c1.7,0,3.5,0,5.2,0c0.4,0,0.5,0.1,0.5,0.5c0,1,0,2,0,2.9c0,0.8,0.2,1.5,0.5,2.2c0.6,1.1,1.6,1.4,2.8,1.3
		c1.9-0.1,2.6-1.3,2.8-3.2c0.3-2.7-0.7-5-2.5-7c-1.3-1.5-2.7-2.8-4.1-4.2c-1.6-1.6-2.9-3.4-3.9-5.4c-1.1-2.4-1.4-5-1.2-7.6
		c0.1-1.8,0.5-3.5,1.4-5c1.2-2,3-3.2,5.3-3.6c1.6-0.3,3.2-0.3,4.9,0.1c2.5,0.6,4.2,2.2,5.1,4.5c0.8,1.9,1,3.8,1,5.8
		c0,1.1,0,1.1-1.1,1.1c-1.4,0-2.8,0-4.2,0c-0.4,0-0.5-0.1-0.5-0.5c0-1,0-2-0.2-3c-0.2-1.4-1.2-2.3-2.5-2.3c-1.7-0.1-2.7,0.6-3.1,2
		c-0.6,2.5-0.2,4.7,1.2,6.9c1.1,1.6,2.5,3,3.9,4.3c1.7,1.6,3.2,3.3,4.4,5.3c1.5,2.5,2.1,5.2,1.9,8.1c-0.1,2-0.4,4-1.4,5.7
		c-1.2,2.2-3.1,3.4-5.6,3.8c-1.6,0.3-3.1,0.2-4.6-0.1c-2.6-0.6-4.3-2.2-5.3-4.6c-0.4-1-0.7-2.1-0.8-3.3c0-0.2-0.1-0.3-0.1-0.5
		C21,51.1,21,49.7,21,48.2z"/>
</g>
</svg>
